<?xml version="1.0" encoding="UTF-8" standalone="no"?>
<!DOCTYPE svg PUBLIC "-//W3C//DTD SVG 1.1//EN"
 "http://www.w3.org/Graphics/SVG/1.1/DTD/svg11.dtd">
<!-- Generated by graphviz version 2.43.0 (0)
 -->
<!-- Title: G Pages: 1 -->
<svg width="162pt" height="207pt"
 viewBox="0.00 0.00 162.00 207.00" xmlns="http://www.w3.org/2000/svg" xmlns:xlink="http://www.w3.org/1999/xlink">
<g id="graph0" class="graph" transform="scale(1 1) rotate(0) translate(4 203)">
<title>G</title>
<polygon fill="white" stroke="transparent" points="-4,4 -4,-203 158,-203 158,4 -4,4"/>
<g id="clust1" class="cluster">
<title>cluster_x</title>
<polygon fill="lightblue" stroke="lightblue" points="20,-8 20,-155 90,-155 90,-8 20,-8"/>
<text text-anchor="middle" x="55" y="-139.8" font-family="Times,serif" font-size="14.00">x</text>
</g>
<!-- 1 -->
<g id="node1" class="node">
<title>1</title>
<polygon fill="red" stroke="red" points="27,-199 0,-181 27,-163 54,-181 27,-199"/>
<text text-anchor="middle" x="27" y="-177.3" font-family="Times,serif" font-size="14.00">1</text>
</g>
<!-- 2 -->
<g id="node2" class="node">
<title>2</title>
<ellipse fill="none" stroke="black" cx="55" cy="-106" rx="27" ry="18"/>
<text text-anchor="middle" x="55" y="-102.3" font-family="Times,serif" font-size="14.00">2</text>
</g>
<!-- 1&#45;&gt;2 -->
<g id="edge1" class="edge">
<title>1&#45;&gt;2</title>
<path fill="none" stroke="black" d="M32.27,-166.27C35.84,-156.94 40.69,-144.31 44.99,-133.11"/>
<polygon fill="black" stroke="black" points="48.26,-134.34 48.58,-123.74 41.73,-131.83 48.26,-134.34"/>
</g>
<!-- 3 -->
<g id="node3" class="node">
<title>3</title>
<ellipse fill="none" stroke="black" cx="55" cy="-34" rx="27" ry="18"/>
<text text-anchor="middle" x="55" y="-30.3" font-family="Times,serif" font-size="14.00">3</text>
</g>
<!-- 1&#45;&gt;3 -->
<g id="edge2" class="edge">
<title>1&#45;&gt;3</title>
<path fill="none" stroke="black" d="M21.82,-166.43C20.65,-162.77 19.59,-158.78 19,-155 14.41,-125.58 10.25,-116.46 19,-88 22.29,-77.31 28.54,-66.85 34.93,-58.08"/>
<polygon fill="black" stroke="black" points="37.88,-59.98 41.25,-49.93 32.35,-55.69 37.88,-59.98"/>
</g>
<!-- 2&#45;&gt;3 -->
<g id="edge4" class="edge">
<title>2&#45;&gt;3</title>
<path fill="none" stroke="black" d="M55,-87.7C55,-79.98 55,-70.71 55,-62.11"/>
<polygon fill="black" stroke="black" points="58.5,-62.1 55,-52.1 51.5,-62.1 58.5,-62.1"/>
</g>
<!-- 4 -->
<g id="node4" class="node">
<title>4</title>
<ellipse fill="none" stroke="black" cx="127" cy="-34" rx="27" ry="18"/>
<text text-anchor="middle" x="127" y="-30.3" font-family="Times,serif" font-size="14.00">4</text>
</g>
<!-- 2&#45;&gt;4 -->
<g id="edge3" class="edge">
<title>2&#45;&gt;4</title>
<path fill="none" stroke="black" d="M69.57,-90.83C79.75,-80.94 93.52,-67.55 105.03,-56.36"/>
<polygon fill="black" stroke="black" points="107.47,-58.87 112.2,-49.38 102.59,-53.85 107.47,-58.87"/>
</g>
</g>
</svg>
